<svg height="57" viewBox="0 0 175 57" width="175" xmlns="http://www.w3.org/2000/svg"><g fill="none" fill-rule="evenodd"><path d="m54.2876867 38.9457216c1.6687858 0 2.8663631-.9402492 2.8663631-2.4924068 0-1.3711968-.769206-2.1286198-2.1493067-2.662174l-1.2255145-.4701246c-.938692-.3656525-1.3819632-.744364-1.3819632-1.5932002 0-.8488361.7952807-1.4234329 1.7991596-1.4234329.8474303 0 1.408038.3787115 1.8904214.9533083l.7692059-.6268328c-.4954207-.705187-1.4471501-1.2667247-2.6186526-1.2667247-1.6035988 0-2.8272509.9271902-2.8272509 2.3748756 0 1.2667247.6127573 1.9831051 2.04687 2.5315838l1.3670634.5223607c.8474302.3264755 1.342851.8749542 1.342851 1.6846133 0 .9533083-.8343929 1.5279051-1.8624841 1.5279051-1.1212154 0-1.8643466-.4962427-2.3839797-1.3189608l-.8213554.5876558c.4134714.9271902 1.6501609 1.6715542 3.1885727 1.6715542zm-9.2323337 0c2.112057 0 3.5703821-1.4364919 3.5703821-3.7460725v-5.678807h-.9908416v5.7049251c0 1.7890854-1.0299537 2.7815707-2.5795405 2.7815707-1.5514492 0-2.5814029-.9924853-2.5814029-2.7815707v-5.7049251h-.9908416v5.678807c0 2.3114462 1.4601876 3.7460725 3.5722445 3.7460725zm-12.126634-5.3784497v-3.1192396h1.9164962c1.1733649 0 1.8494467.5354197 1.8494467 1.5670821s-.6779442 1.5540231-1.8494467 1.5540231h-1.9164962zm-.9908415 5.2217415h.9908415v-4.3076102h1.0560285l3.6616438 4.3076102h1.2907014l-3.6486063-4.2945512c1.4992997-.1175312 2.4100544-1.0708395 2.4100544-2.4793478 0-1.514846-1.0429911-2.4924068-2.7359891-2.4924068h-3.0246742zm-5.512953 0h.9908416v-9.2681713h-.9908416zm-8.1576804 0h.8083181l3.9745411-9.2681713h-1.0951406l-3.2835595 7.6488531-3.2835595-7.6488531h-1.1081781z" fill="#2b2b2a" fill-rule="nonzero"/><path d="m54.3901234 28.2653108c1.6687857 0 2.866363-.9402493 2.866363-2.4924068 0-1.3711968-.7692059-2.1286199-2.1511691-2.662174l-1.2255146-.4701246c-.938692-.3656525-1.3819632-.744364-1.3819632-1.5932002 0-.8488361.7952807-1.4234329 1.7991597-1.4234329.8474302 0 1.408038.3787115 1.8904213.9533083l.769206-.6268329c-.4954208-.7051869-1.4471502-1.2667247-2.6205152-1.2667247-1.6035988 0-2.8272508.9271903-2.8272508 2.3748757 0 1.2667247.6127572 1.9831051 2.0450075 2.5315838l1.3689258.5223607c.8474303.3264754 1.3428511.8749542 1.3428511 1.6846133 0 .9533083-.8343929 1.527905-1.8624841 1.527905-1.1212155 0-1.8643466-.4962426-2.3858422-1.3189607l-.8213555.5876557c.419059.9271903 1.6576109 1.6715543 3.1941603 1.6715543zm-9.6569801-.1567082h.8083181l3.9745411-9.2681714h-1.0951407l-3.2835595 7.6488532-3.2835595-7.6488532h-1.108178z" stroke="#2b2b2a" stroke-width="1.226"/><path d="m33.8655485 22.5230742v-1.7760264h1.3298137c.6127572 0 1.0560285.3264755 1.0560285.8880132 0 .5354197-.4432713.8880132-1.0560285.8880132zm-2.0710823 5.5855284h2.0710823v-3.8244266h.3389721l3.0749613 3.8244266h2.4882787l-3.270522-4.0856069c1.1733649-.4178886 1.8103345-1.1883706 1.8103345-2.3879347 0-1.5409641-1.1212154-2.7927642-2.866363-2.7927642h-3.6486064v9.2663058zm-5.2000556 0h2.0729448v-9.2681714h-2.0729448zm-12.5512804 0h1.8624841l1.8513092-6.1097547 1.8364093 6.1097547h1.877384l2.8794004-9.2681714h-2.2144936l-1.6818231 5.9138694-1.7991597-5.9138694h-1.8215094l-1.7991597 5.8877514-1.6818231-5.8877514h-2.1884189z" fill="#2b2b2a" fill-rule="nonzero"/><path d="m78.5204675 4.2106377c.523358.01492459 1.0187788.23506232 1.3838257.61004268 11.7597246 11.77919652 11.7597246 30.94050652 0 42.71974042-11.7597247 11.7792338-30.889299 11.7792338-42.6490236 0-.7990057-.7760788-.8176305-2.0521314-.0428371-2.850597.7747933-.8003312 2.0487325-.818987 2.8458757-.0429082.0148998.0149246.0279372.0279836.0428371.0429082 10.2213128 10.2382698 26.7340969 10.2382698 36.9572721 0 10.2213128-10.2382698 10.2213128-26.7784484 0-37.01854644-.7971432-.77607876-.815768-2.05213133-.0409746-2.85059698.3929841-.40482955.938692-.62683285 1.5030247-.61004268z" fill="#000" fill-rule="nonzero"/><path d="m58.5807126.00186557c9.3235954 0 17.9673842 4.9904103 22.6235945 13.08886683 4.6711101 8.0965909 4.6711101 18.0830082 0 26.1795991-4.6562103 8.0984565-13.2999991 13.089101-22.6235945 13.089101-1.111903.0165559-2.0263827-.8714573-2.0433789-1.9852049-.0165285-1.1137477.8700139-2.0297445 1.9819169-2.0465346h.0633245c7.8932076 0 15.1997328-4.2199283 19.1370242-11.0721814v-.0018655l.0018625-.0018656c3.9540537-6.8541187 3.9540537-15.2921096 0-22.1443627l-.0018625-.0018656v-.0018656c-3.9372914-6.85038748-11.2438166-11.07218131-19.1370242-11.07218131-1.111903.01679016-2.0263827-.87122303-2.0431451-1.98497068-.0167623-1.11374764.8697801-2.02974444 1.9816831-2.04653461.0167624.00186557.0372497.00186557.0595995.00186557z" fill="#de0000" fill-rule="nonzero"/><path d="m58.5807126 4.05197064c5.6638142 0 11.3294908 2.16033462 15.6411415 6.47919426 8.6102641 8.6245483 8.6084016 22.6797824.0018625 31.3173898-.7766558.7966-2.0524575.8096591-2.8458757.0298492-.7952807-.7779444-.8083181-2.0558625-.0297997-2.850597.0093124-.0093279.0186248-.0186558.0279372-.0279836 7.0718522-7.0966433 7.0718522-18.5363427.0018625-25.6180614-7.086752-7.09856483-18.5019171-7.09856483-25.5886691 0-.7747934.7984656-2.0487326.8171214-2.8458757.0429082-.7971432-.7742132-.8157681-2.0521313-.0428372-2.850597.0148999-.0149246.0279373-.0279836.0428372-.0429082 4.3079257-4.32072521 9.9717399-6.47919426 15.6374165-6.47919426z" fill="#ffcf00" fill-rule="nonzero"/><g fill="#2b2b2a"><path d="m97.966664 6.3429514c.3086136 0 .5587452.25056524.5587452.55967219v43.09475811c0 .3091256-.2501316.5596721-.5587452.5596721s-.5587452-.2505465-.5587452-.5596721v-43.09475811c0-.30910695.2501316-.55967219.5587452-.55967219z"/><path d="m106.75107 32.4609866h1.766753v-3.30076h1.866581c2.252489 0 3.461986-1.3547798 3.461986-3.2339724 0-1.8652008-1.195156-3.234159-3.438146-3.234159h-3.657174zm1.766753-4.7557211v-3.5345164h1.619057c1.323854 0 1.909605.7156342 1.909605 1.7555051 0 1.0396843-.585751 1.7790113-1.900106 1.7790113zm8.204242 4.7557211h1.766753v-3.5774246h1.799904l1.914448 3.5774246h1.971439l-2.109636-3.8731181c1.147663-.4628489 1.752412-1.4454467 1.752412-2.7714966 0-1.8650143-1.199999-3.1242767-3.438146-3.1242767h-3.657174zm1.766753-5.0465641v-3.2436734h1.619057c1.319011 0 1.909605.6059384 1.909605 1.6456228 0 1.0398709-.590594 1.5980506-1.900106 1.5980506zm17.010439.1621184c0-3.1576705-1.923946-5.0180208-4.481136-5.0180208-2.562033 0-4.481137 1.8603503-4.481137 5.0180208 0 3.1530065 1.919104 5.0180208 4.481137 5.0180208 2.55719 0 4.481136-1.8603503 4.481136-5.0180208zm-1.776251 0c0 2.2228314-1.114324 3.4296711-2.704885 3.4296711-1.585719 0-2.704886-1.2068397-2.704886-3.4296711s1.119167-3.4294846 2.704886-3.4294846c1.590561 0 2.704885 1.2066532 2.704885 3.4294846zm8.635222-4.8844457v6.8688567c-.004843 1.0301699-.48108 1.5788352-1.328696 1.5788352-.790439 0-1.319012-.4818777-1.333353-1.2736273h-1.757254c0 1.8030772 1.314355 2.7284019 3.02393 2.7284019 1.881109 0 3.142942-1.1447162 3.147784-3.0336098v-6.8688567z" fill-rule="nonzero"/><path d="m147.368 32.461h6.381v-1.484h-4.614v-2.666h4.248v-1.483h-4.248v-2.652h4.576v-1.484h-6.343z" fill-rule="nonzero"/><path d="m156.855 32.461h1.766v-2.91l1.081-1.278 2.91 4.188h2.124l-3.805-5.385 3.772-4.384h-2.158l-3.805 4.489h-.119v-4.489h-1.766z" fill-rule="nonzero"/><path d="m166.843 24.176h3.014v8.285h1.752v-8.285h3.014v-1.484h-7.78z" fill-rule="nonzero"/><path d="m3.41579585 27.5489304h2.43985418l-.7375437 2.3282363h-2.43985418zm3.46794541-3.2964692-.78783078 2.4942724h-2.43799169l.77479338-2.4942724h-.85115523l-.77479339 2.4942724h-1.88110895v.8021968h1.62594863l-.73568123 2.3282363h-1.815922v.8021968h1.57566155l-.81576803 2.6080724h.86419262l.79900568-2.6080724h2.45289157l-.81204307 2.6080724h.85115524l.80086816-2.6080724h1.90532125v-.8021968h-1.65202341l.73754371-2.3282363h1.82895939v-.8021968h-1.58683646l.77479339-2.4942724z" fill-rule="nonzero"/></g></g></svg>