<svg version="1" xmlns="http://www.w3.org/2000/svg" width="933.333" height="933.333" viewBox="0 0 700.000000 700.000000"><path d="M464 12.1c-15.7 2.6-28.2 13.1-32.6 27.6-3.1 9.7.1 25.9 6.4 33.1 2.4 2.8 3.1.7-9 28.7-9.8 22.9-8.5 21.1-14.4 19.2-6.1-1.9-20.8-5.1-28.4-6.2-1.9-.3-4.8-.7-6.5-1-12.4-1.8-36.3-2.4-49.9-1.2-16.2 1.5-32.8 4.7-52.1 10.2-1.8.6-2.9-1.6-10.8-21.8-7.9-20.3-9.3-25.7-6.7-25.7 1.4 0 6.9-12.6 7.6-17.1 2.5-17.6-5.7-33.5-21.5-41.2-6.2-3-7.3-3.2-17.1-3.2-9.4.1-11.1.4-16.1 2.8-7.2 3.5-15 11-18.5 17.9-2 4-2.8 7-3 12.4-.5 12.2 3 20.9 11.6 29.6 6 6 11.8 9.1 20.3 11 3 .6 5 1.6 5.4 2.6.2 1 .9 2.6 1.4 3.7 2.4 5.5 14.9 38.3 14.9 39.1 0 .5-3.9 2.9-8.7 5.4-25.2 13.1-54 36.7-71.7 58.9-7.1 8.9-19.8 27.8-21.6 32-.7 1.7-1.5 3.1-1.9 3.1-.3 0-10.9-4.5-23.5-9.8l-23-9.8-1.3-5.7c-2.8-12.5-10.8-23.4-20.8-28.2-6.6-3.3-9.3-3.8-18.3-3.7-15 .1-29.6 10.6-35.2 25.2-.7 1.9-1.4 6.8-1.6 10.8-.5 12.8 5.7 26.5 15.4 33.9 12.7 9.6 31.5 9.8 44.3.4l4.1-3 4.2 1.9c2.2 1.1 11.1 4.9 19.6 8.5 8.5 3.6 17.2 7.3 19.2 8.2l3.7 1.6-2 5.1c-3.8 9.7-9.2 30.3-11.3 43.1-3.4 21.1-3.6 48.9-.5 70 1.2 8.5 4.4 23.4 7.1 33.3 1.1 4.1 1.8 7.5 1.6 7.6-.1.1-2.5 1-5.3 2-2.7 1-5.9 2.2-7 2.6-2.1 1-28.9 11.3-31.7 12.3-.9.3-2.1 0-2.7-.7-.6-.7-4.2-2.9-7.9-4.7-6.3-3.2-7.3-3.4-16.7-3.4-9.2 0-10.6.3-16.5 3.1-24.7 12-30.3 43-11.1 62.4 15.7 15.9 40.8 15.2 55.8-1.4 5-5.5 7.5-10.4 9.6-18.5l1.3-5.2 9.5-3.8c24.5-9.8 33.9-13.3 34.9-12.9.6.2 3.2 4.2 5.7 8.8 14 26.4 34.7 51.1 58.8 70.6 6.7 5.4 19.3 14.4 20.2 14.4.3 0 1.4.6 2.2 1.4.9.8 7.3 4.5 14.3 8.3l12.6 6.9-6.4 15c-3.5 8.2-6.8 15.8-7.3 16.9-.4 1.1-1.9 4.5-3.2 7.5-2.9 6.9-3 7-6.8 7.6-18.7 3-33 18.3-33.7 36-.5 11.6 2.6 20 10.5 28.6 14.5 15.9 37.9 16.7 54.4 1.8 14.2-12.8 16.6-33.6 5.7-49.5l-3.1-4.4 9.8-22.8c5.3-12.5 9.8-23 9.9-23.2.2-.2 3.1.4 6.6 1.3 3.5 1 7.2 1.9 8.3 2.1 5.3 1.2 7.2 1.6 9.5 2 1.4.3 3.6.7 5 1 4.5 1 6.4 1.3 12.5 1.9 3.3.4 7.4.9 9 1.1 4.3.6 37.9.7 40.7.1 2.1-.5 6.7-1 17.3-2.2 2.1-.2 5.5-.9 7.5-1.4 1.9-.5 4.6-1.1 6-1.4 3.4-.7 5.6-1.2 12.5-3.2 3.3-.9 6.9-1.8 8-2.1 1.8-.4 3 2.2 10.7 21.8l8.7 22.3-2.8 4.5c-5 8.2-6.6 13.9-6.6 23.1 0 7.4.4 9.3 3.1 15 10.6 22.5 34.6 30 56 17.5 12.8-7.5 20.6-24.9 17.6-39.5-3.3-15.8-16.9-29.3-31.8-31.6l-4.2-.6-8.7-22.4c-7.3-18.6-8.6-22.6-7.5-23.9.7-.8 1.8-1.5 2.4-1.5 3.2 0 39.2-22.9 43.1-27.3.6-.7 3-2.8 5.5-4.8 15.3-12.4 34.1-34.6 45.6-53.9 5.6-9.4 7.6-11.2 10-9.2.5.5 4.1 2.1 7.9 3.7 3.9 1.5 9.7 4 13 5.5 3.3 1.4 9.2 3.9 13 5.5 8.3 3.4 9.2 4.1 9.8 8 .9 5.3 4.8 14.4 8.1 18.8 12.7 16.6 36.2 19.6 53.2 6.7 20.2-15.2 21.1-42.3 1.9-59.8-13-11.9-33-12.9-47.3-2.4-3.8 2.9-1.4 3.6-30.7-9.1-13.6-6-18.9-8.7-18.6-9.8.2-.8 1.9-5.9 3.8-11.4 1.8-5.5 3.5-10.9 3.8-12 .2-1.1 1.3-6.1 2.4-11 1.1-5 2.2-11 2.6-13.5.3-2.5.8-6.3 1.1-8.5 1.3-9.7 1.9-35.9 1-45.5-1.5-16.2-4.1-31-8.2-45.9-1.4-5.1-2.4-9.4-2.2-9.6.2-.2 5.7-2.4 12.3-4.9 6.6-2.6 12.9-5.1 14-5.5 1.1-.5 5.7-2.4 10.3-4.1l8.3-3.3 2.7 2c3.7 2.8 10.9 6.4 14.1 7.1 1.4.3 6.2.6 10.6.6 6.9 0 9-.5 14.6-3.1 3.6-1.6 8.2-4.5 10.4-6.4 4.5-4 9.7-11.8 11.5-17.3 1.6-4.9 2-14.6.8-19.9-2.5-11.2-11.7-22.4-22.5-27.5-5-2.3-7.1-2.7-15.3-2.7-8.7 0-10.1.3-16.2 3.3-11.5 5.6-20.7 17.4-22.4 28.7l-.6 4.2-13.6 5.4c-7.6 2.9-13.9 5.4-14.2 5.4-.3.1-1.8.7-3.5 1.4-3 1.3-13.6 5.1-14.1 5.1-.2 0-1.9-3.1-3.7-6.8-15.4-30.6-46.7-65.8-74.5-83.7-.9-.6-2.4-1.7-3.4-2.6-1-.9-3.1-2.2-4.6-3-1.5-.7-3.8-2.1-5.2-3-1.8-1.2-19.6-10.5-21.7-11.4-.7-.3 18.1-43.2 19.3-44.1.8-.6 3.2-1.4 5.4-1.8 6-.9 14.5-5.3 20-10.3 16.1-14.4 15.2-41.2-1.8-56.5-8.4-7.5-19-10.6-30.2-8.7z"/></svg>